<svg width="38" height="39" viewBox="0 0 38 39" fill="none" xmlns="http://www.w3.org/2000/svg">
<g clip-path="url(#clip0_676_12863)">
<path d="M2.19878 1.26709C1.82227 1.55007 1.56044 1.98582 1.56006 2.48852V36.8275C1.56006 37.3375 1.82208 37.7699 2.20164 38.0549L21.4551 19.6623L2.19878 1.26709Z" fill="#29B6F6"/>
<path d="M2.19878 1.26709C1.82227 1.55007 1.56044 1.98582 1.56006 2.48852V36.8275C1.56006 37.3375 1.82208 37.7699 2.20164 38.0549L21.4551 19.6623L2.19878 1.26709Z" fill="url(#paint0_linear_676_12863)"/>
<path d="M27.3857 13.9972C19.4943 9.61385 9.69154 4.24398 3.84363 1.11544C3.2732 0.811222 2.65153 0.926946 2.19873 1.26736L21.4551 19.6626L27.3857 13.9972Z" fill="#00E676"/>
<path d="M27.3857 13.9972C19.4943 9.61385 9.69154 4.24398 3.84363 1.11544C3.2732 0.811222 2.65153 0.926946 2.19873 1.26736L21.4551 19.6626L27.3857 13.9972Z" fill="url(#paint1_linear_676_12863)"/>
<path d="M2.20142 38.0552C2.4622 38.2511 2.76994 38.3887 3.12035 38.3887C3.36723 38.3887 3.61029 38.3255 3.84269 38.2012C9.68984 35.0734 19.4898 29.7052 27.3801 25.3228L21.4549 19.6626L2.20142 38.0552Z" fill="#F44336"/>
<path d="M2.20142 38.0552C2.4622 38.2511 2.76994 38.3887 3.12035 38.3887C3.36723 38.3887 3.61029 38.3255 3.84269 38.2012C9.68984 35.0734 19.4898 29.7052 27.3801 25.3228L21.4549 19.6626L2.20142 38.0552Z" fill="url(#paint2_linear_676_12863)"/>
<path d="M35.0975 18.313C32.9971 17.1239 30.3197 15.6266 27.3859 13.9971L21.4553 19.6625L27.3805 25.3227C30.3164 23.6921 32.9958 22.1938 35.0975 21.0041C35.5874 20.7268 35.8915 20.2115 35.8915 19.6582C35.8915 19.1049 35.5874 18.5896 35.0975 18.313Z" fill="#FFEA00"/>
<path d="M35.0975 18.313C32.9971 17.1239 30.3197 15.6266 27.3859 13.9971L21.4553 19.6625L27.3805 25.3227C30.3164 23.6921 32.9958 22.1938 35.0975 21.0041C35.5874 20.7268 35.8915 20.2115 35.8915 19.6582C35.8915 19.1049 35.5874 18.5896 35.0975 18.313Z" fill="url(#paint3_linear_676_12863)"/>
<path opacity="0.2" d="M3.73208 1.50508C11.8142 5.79667 27.4117 14.3151 35.2197 18.7028C35.5048 18.8625 35.7171 19.1066 35.8543 19.387C35.7722 18.9416 35.5051 18.543 35.0971 18.3126C27.3472 13.925 11.8655 5.40654 3.84352 1.11495C2.8842 0.603287 1.77373 1.25953 1.59619 2.22704C1.96251 1.48869 2.90306 1.06618 3.73208 1.50508Z" fill="white"/>
<path opacity="0.1" d="M3.73208 37.8194C11.8142 33.5279 27.4117 25.0094 35.2197 20.6217C35.5048 20.462 35.7171 20.2179 35.8543 19.9375C35.7722 20.383 35.5051 20.7816 35.0971 21.0119C27.3472 25.3996 11.8655 33.918 3.84352 38.2096C2.8842 38.7212 1.77373 38.065 1.59619 37.0975C1.96251 37.8358 2.90306 38.2583 3.73208 37.8194Z" fill="black"/>
<path d="M35.0975 18.3116C32.9972 17.1224 9.69183 4.24132 3.84392 1.11252C3.27349 0.808282 2.65182 0.924015 2.19902 1.26445C1.82251 1.54745 1.56068 1.98323 1.5603 2.48598V36.8277C1.5603 37.3377 1.82232 37.7702 2.20188 38.0552C2.46266 38.2511 2.7704 38.3888 3.12081 38.3888C3.36769 38.3888 3.61076 38.3255 3.84316 38.2012C9.69031 35.0732 32.9958 22.1927 35.0975 21.0029C35.5875 20.7255 35.8915 20.2102 35.8915 19.6569C35.8915 19.1035 35.5875 18.5882 35.0975 18.3116Z" fill="url(#paint4_linear_676_12863)"/>
</g>
<defs>
<linearGradient id="paint0_linear_676_12863" x1="11.5076" y1="4.20213" x2="11.5076" y2="29.0304" gradientUnits="userSpaceOnUse">
<stop stop-color="#00B8D4" stop-opacity="0"/>
<stop offset="1" stop-color="white" stop-opacity="0.3"/>
</linearGradient>
<linearGradient id="paint1_linear_676_12863" x1="0.571956" y1="4.75598" x2="26.1361" y2="16.6768" gradientUnits="userSpaceOnUse">
<stop stop-color="white" stop-opacity="0.2"/>
<stop offset="1" stop-color="white" stop-opacity="0"/>
</linearGradient>
<linearGradient id="paint2_linear_676_12863" x1="11.6792" y1="28.5774" x2="17.9023" y2="34.8005" gradientUnits="userSpaceOnUse">
<stop stop-opacity="0.1"/>
<stop offset="1" stop-opacity="0"/>
</linearGradient>
<linearGradient id="paint3_linear_676_12863" x1="25.2237" y1="15.8941" x2="32.7562" y2="23.4267" gradientUnits="userSpaceOnUse">
<stop stop-opacity="0.05"/>
<stop offset="1" stop-opacity="0"/>
</linearGradient>
<linearGradient id="paint4_linear_676_12863" x1="-4.85726" y1="15.9309" x2="30.1695" y2="32.2641" gradientUnits="userSpaceOnUse">
<stop stop-color="white" stop-opacity="0.2"/>
<stop offset="1" stop-color="white" stop-opacity="0"/>
</linearGradient>
<clipPath id="clip0_676_12863">
<rect width="37.4522" height="37.4522" fill="white" transform="translate(0 0.936523)"/>
</clipPath>
</defs>
</svg>
