<svg width="30" height="30" viewBox="0 0 30 30" fill="none" xmlns="http://www.w3.org/2000/svg">
<path fill-rule="evenodd" clip-rule="evenodd" d="M11.25 26.25C11.25 25.9185 11.3817 25.6005 11.6161 25.3661C11.8505 25.1317 12.1685 25 12.5 25H17.5C17.8315 25 18.1495 25.1317 18.3839 25.3661C18.6183 25.6005 18.75 25.9185 18.75 26.25C18.75 26.5815 18.6183 26.8995 18.3839 27.1339C18.1495 27.3683 17.8315 27.5 17.5 27.5H12.5C12.1685 27.5 11.8505 27.3683 11.6161 27.1339C11.3817 26.8995 11.25 26.5815 11.25 26.25ZM11.25 19.2812C11.5815 19.2812 11.8995 19.4129 12.1339 19.6474C12.3683 19.8818 12.5 20.1997 12.5 20.5312V21.0287C12.5 21.4962 12.8788 21.875 13.3463 21.875H16.6537C16.8782 21.875 17.0934 21.7858 17.2521 21.6271C17.4108 21.4684 17.5 21.2532 17.5 21.0287V20.625C17.5 20.2935 17.6317 19.9755 17.8661 19.7411C18.1005 19.5067 18.4185 19.375 18.75 19.375C19.0815 19.375 19.3995 19.5067 19.6339 19.7411C19.8683 19.9755 20 20.2935 20 20.625V21.0287C20.0002 21.4682 19.9137 21.9034 19.7456 22.3095C19.5775 22.7156 19.331 23.0845 19.0203 23.3953C18.7095 23.706 18.3406 23.9525 17.9345 24.1206C17.5284 24.2887 17.0932 24.3752 16.6537 24.375H13.3463C12.9068 24.3752 12.4716 24.2887 12.0655 24.1206C11.6594 23.9525 11.2905 23.706 10.9797 23.3953C10.669 23.0845 10.4225 22.7156 10.2544 22.3095C10.0863 21.9034 9.99984 21.4682 10 21.0287V20.5312C10 20.1997 10.1317 19.8818 10.3661 19.6474C10.6005 19.4129 10.9185 19.2812 11.25 19.2812Z" fill="#0060FE"/>
<path d="M17.785 21.0575C17.9562 21.5825 18.5225 21.875 19.0287 21.6525C21.1333 20.7262 22.8543 19.103 23.902 17.0563C24.9497 15.0095 25.26 12.6642 24.7807 10.4154C24.3015 8.16656 23.0619 6.15159 21.2707 4.70984C19.4796 3.26808 17.2463 2.48762 14.947 2.4999C12.6477 2.51218 10.4229 3.31644 8.64721 4.77725C6.87155 6.23805 5.65354 8.26614 5.19832 10.52C4.7431 12.7738 5.07847 15.1156 6.14796 17.1511C7.21745 19.1865 8.95571 20.7913 11.07 21.695C11.5775 21.9125 12.1412 21.615 12.3075 21.0875L12.4162 20.74C12.5812 20.2137 12.2837 19.6575 11.7837 19.425C10.2097 18.6939 8.93156 17.4484 8.16005 15.8937C7.38854 14.3391 7.16964 12.568 7.53943 10.8722C7.90922 9.1765 8.84563 7.65733 10.1944 6.56502C11.5431 5.47271 13.2237 4.87243 14.9593 4.8631C16.6948 4.85377 18.3818 5.43593 19.7422 6.51367C21.1026 7.5914 22.0553 9.10042 22.4433 10.7921C22.8313 12.4837 22.6315 14.2571 21.8768 15.82C21.122 17.3829 19.8574 18.642 18.2912 19.39C17.7925 19.6275 17.5012 20.1862 17.6725 20.7125L17.785 21.0575Z" fill="#0060FE"/>
<path fill-rule="evenodd" clip-rule="evenodd" d="M12.57 11.3451C12.6241 11.1901 12.7083 11.0474 12.8176 10.9249C12.927 10.8025 13.0594 10.7028 13.2073 10.6315C13.3551 10.5603 13.5156 10.5188 13.6795 10.5096C13.8434 10.5003 14.0075 10.5234 14.1625 10.5776L15.295 10.9738L15.35 10.9926C15.625 11.0876 15.9475 11.2001 16.2025 11.3338C16.495 11.4876 16.975 11.8088 17.1362 12.4526C17.2962 13.0963 17.0237 13.6051 16.8387 13.8776C16.6762 14.1151 16.4437 14.3663 16.2475 14.5801L16.2075 14.6226L16.0787 14.7626L16.635 14.9438C16.9419 15.0525 17.1944 15.2768 17.3386 15.5688C17.4827 15.8608 17.5073 16.1975 17.4069 16.5073C17.3066 16.8171 17.0893 17.0755 16.8013 17.2276C16.5133 17.3796 16.1774 17.4132 15.865 17.3213L14.9362 17.0213L14.88 17.0026C14.5805 16.9154 14.2881 16.8059 14.005 16.6751C13.7075 16.5276 13.2112 16.2126 13.04 15.5588C12.8687 14.9063 13.1475 14.3888 13.3337 14.1138C13.4987 13.8726 13.7337 13.6176 13.9362 13.3988L13.9762 13.3551L14.1125 13.2076L13.3375 12.9376C13.1825 12.8834 13.0397 12.7993 12.9173 12.6899C12.7949 12.5806 12.6952 12.4482 12.6239 12.3003C12.5526 12.1524 12.5112 11.992 12.5019 11.8281C12.4927 11.6642 12.5158 11.5001 12.57 11.3451Z" fill="#0060FE"/>
</svg>
