<svg width="30" height="30" viewBox="0 0 30 30" fill="none" xmlns="http://www.w3.org/2000/svg">
<path d="M22.55 16.9375C22.025 17.45 21.725 18.1875 21.8 18.975C21.9125 20.325 23.15 21.3125 24.5 21.3125H26.875V22.8C26.875 25.3875 24.7625 27.5 22.175 27.5H7.825C5.2375 27.5 3.125 25.3875 3.125 22.8V14.3875C3.125 11.8 5.2375 9.6875 7.825 9.6875H22.175C24.7625 9.6875 26.875 11.8 26.875 14.3875V16.1875H24.35C23.65 16.1875 23.0125 16.4625 22.55 16.9375Z" stroke="#0060FE" stroke-width="1.5" stroke-linecap="round" stroke-linejoin="round"/>
<path d="M3.125 15.5125V9.80007C3.125 8.31257 4.0375 6.98751 5.425 6.46251L15.35 2.71251C16.9 2.12501 18.5625 3.27505 18.5625 4.93755V9.68754" stroke="#0060FE" stroke-width="1.5" stroke-linecap="round" stroke-linejoin="round"/>
<path d="M28.1985 17.4627V20.0378C28.1985 20.7253 27.6485 21.2877 26.9485 21.3127H24.4985C23.1485 21.3127 21.911 20.3252 21.7985 18.9752C21.7235 18.1877 22.0235 17.4502 22.5485 16.9377C23.011 16.4627 23.6485 16.1877 24.3485 16.1877H26.9485C27.6485 16.2127 28.1985 16.7752 28.1985 17.4627Z" stroke="#0060FE" stroke-width="1.5" stroke-linecap="round" stroke-linejoin="round"/>
<path d="M8.75 15H17.5" stroke="#0060FE" stroke-width="1.5" stroke-linecap="round" stroke-linejoin="round"/>
</svg>
