<svg width="30" height="30" viewBox="0 0 30 30" fill="none" xmlns="http://www.w3.org/2000/svg">
<path d="M19.475 14.9999C19.475 17.4749 17.475 19.4749 15 19.4749C12.525 19.4749 10.525 17.4749 10.525 14.9999C10.525 12.5249 12.525 10.5249 15 10.5249C17.475 10.5249 19.475 12.5249 19.475 14.9999Z" stroke="#0060FE" stroke-width="1.5" stroke-linecap="round" stroke-linejoin="round"/>
<path d="M15 25.3374C19.4125 25.3374 23.525 22.7374 26.3875 18.2374C27.5125 16.4749 27.5125 13.5124 26.3875 11.7499C23.525 7.2499 19.4125 4.6499 15 4.6499C10.5875 4.6499 6.47499 7.2499 3.61249 11.7499C2.48749 13.5124 2.48749 16.4749 3.61249 18.2374C6.47499 22.7374 10.5875 25.3374 15 25.3374Z" stroke="#0060FE" stroke-width="1.5" stroke-linecap="round" stroke-linejoin="round"/>
</svg>
