<svg width="30" height="30" viewBox="0 0 30 30" fill="none" xmlns="http://www.w3.org/2000/svg">
<path d="M11.8102 1.14233L6.66621 1.67735L2.34521 7.23286V10.3193L5.63736 13.9407L9.4234 13.1589L12.3041 13.735L11.6868 15.9572L13.6621 19.5374L12.6745 22.0477L15.0059 28.8578L18.1477 28.344L21.0284 25.093L21.2753 22.8296L23.1271 21.4304L22.7567 17.3563L27.6548 11.0872L24.6086 11.5127L19.9584 3.40575L12.6332 2.91192L11.8102 1.14233ZM26.5961 19.8806L25.7522 21.1029L24.9666 21.1319C24.2723 22.557 24.2284 23.3596 24.1517 25.0312L25.1702 25.2932L26.4506 22.2377L26.5961 19.8806Z" fill="#0060FE"/>
</svg>
