<svg width="30" height="30" viewBox="0 0 30 30" fill="none" xmlns="http://www.w3.org/2000/svg">
<path d="M13.4662 20.15L20.7537 27.4375C21.3787 28.0425 22.2164 28.3776 23.0863 28.3706C23.9561 28.3635 24.7883 28.0148 25.4034 27.3998C26.0185 26.7847 26.3672 25.9524 26.3742 25.0826C26.3813 24.2128 26.0462 23.375 25.4412 22.75L18.0949 15.4037M13.4662 20.15L16.5862 16.3625C16.9824 15.8825 17.5112 15.58 18.0962 15.405C18.7837 15.2 19.5499 15.17 20.2749 15.23C20.4332 15.2442 20.5932 15.2513 20.7549 15.2513C21.695 15.2514 22.6201 15.016 23.4458 14.5664C24.2714 14.1168 24.9712 13.4675 25.4812 12.6778C25.9912 11.888 26.2951 10.9831 26.3652 10.0456C26.4353 9.10813 26.2693 8.16804 25.8824 7.31125L21.7874 11.4062C21.102 11.2484 20.4749 10.9009 19.9776 10.4036C19.4802 9.90628 19.1328 9.27912 18.9749 8.59375L23.0699 4.49875C22.176 4.09495 21.192 3.93193 20.2157 4.02585C19.2393 4.11978 18.3044 4.46739 17.5039 5.03419C16.7034 5.60098 16.0649 6.36727 15.652 7.25699C15.2391 8.14672 15.066 9.12896 15.1499 10.1062C15.2637 11.4512 15.0612 12.9363 14.0199 13.7938L13.8924 13.9M13.4662 20.15L7.64741 27.2162C7.3654 27.56 7.01453 27.8409 6.6174 28.0409C6.22027 28.2408 5.78567 28.3554 5.34157 28.3773C4.89747 28.3992 4.45372 28.3278 4.03887 28.1678C3.62402 28.0078 3.24727 27.7627 2.93287 27.4483C2.61846 27.1339 2.37337 26.7571 2.21337 26.3423C2.05336 25.9274 1.98199 25.4837 2.00385 25.0396C2.02571 24.5955 2.14031 24.1609 2.34028 23.7638C2.54025 23.3666 2.82115 23.0158 3.16491 22.7337L11.7112 15.6963L6.57741 10.5625H4.81616L2.00366 5.875L3.87866 4L8.56616 6.8125V8.57375L13.8912 13.8987L11.7099 15.695M22.1599 24.1562L18.8787 20.875M5.27491 25.0938H5.28491V25.1037H5.27491V25.0938Z" stroke="#0060FE" stroke-width="1.5" stroke-linecap="round" stroke-linejoin="round"/>
</svg>
