<svg width="24" height="24" viewBox="0 0 24 24" fill="none" xmlns="http://www.w3.org/2000/svg">
<path d="M8.154 15.846L13.962 13.962L15.846 8.154L10.039 10.039L8.154 15.846ZM11.996 13.116C11.6847 13.116 11.4213 13.007 11.206 12.789C10.992 12.571 10.885 12.3067 10.885 11.996C10.885 11.6847 10.9937 11.4213 11.211 11.206C11.429 10.992 11.6933 10.885 12.004 10.885C12.3153 10.885 12.5787 10.9937 12.794 11.211C13.0087 11.429 13.116 11.6933 13.116 12.004C13.116 12.3153 13.007 12.5787 12.789 12.794C12.571 13.0087 12.3067 13.116 11.996 13.116ZM12.003 21C10.7583 21 9.58833 20.764 8.493 20.292C7.39767 19.8193 6.44467 19.178 5.634 18.368C4.82333 17.558 4.18167 16.606 3.709 15.512C3.23633 14.418 3 13.2483 3 12.003C3 10.7577 3.23633 9.58767 3.709 8.493C4.181 7.39767 4.82133 6.44467 5.63 5.634C6.43867 4.82333 7.391 4.18167 8.487 3.709C9.583 3.23633 10.753 3 11.997 3C13.241 3 14.411 3.23633 15.507 3.709C16.6023 4.181 17.5553 4.82167 18.366 5.631C19.1767 6.44033 19.8183 7.39267 20.291 8.488C20.7637 9.58333 21 10.753 21 11.997C21 13.241 20.764 14.411 20.292 15.507C19.82 16.603 19.1787 17.556 18.368 18.366C17.5573 19.176 16.6053 19.8177 15.512 20.291C14.4187 20.7643 13.249 21.0007 12.003 21ZM12 20C14.2293 20 16.12 19.224 17.672 17.672C19.224 16.12 20 14.2293 20 12C20 9.77067 19.224 7.88 17.672 6.328C16.12 4.776 14.2293 4 12 4C9.77067 4 7.88 4.776 6.328 6.328C4.776 7.88 4 9.77067 4 12C4 14.2293 4.776 16.12 6.328 17.672C7.88 19.224 9.77067 20 12 20Z" fill="white"/>
</svg>
