<svg width="224" height="82" viewBox="0 0 224 82" fill="none" xmlns="http://www.w3.org/2000/svg">
<rect width="224" height="82" rx="10" fill="#020202"/>
<path d="M91.864 32V23.408H94.492C95.804 23.408 96.856 23.804 97.648 24.596C98.448 25.388 98.848 26.424 98.848 27.704C98.848 28.992 98.448 30.032 97.648 30.824C96.856 31.608 95.804 32 94.492 32H91.864ZM92.968 24.464V30.944H94.492C95.492 30.944 96.28 30.66 96.856 30.092C97.432 29.516 97.72 28.72 97.72 27.704C97.72 26.696 97.432 25.904 96.856 25.328C96.28 24.752 95.492 24.464 94.492 24.464H92.968ZM99.6684 29.06C99.6684 28.156 99.9524 27.408 100.52 26.816C101.096 26.224 101.82 25.928 102.692 25.928C103.564 25.928 104.284 26.224 104.852 26.816C105.428 27.408 105.716 28.156 105.716 29.06C105.716 29.972 105.428 30.72 104.852 31.304C104.284 31.896 103.564 32.192 102.692 32.192C101.82 32.192 101.096 31.896 100.52 31.304C99.9524 30.712 99.6684 29.964 99.6684 29.06ZM100.772 29.06C100.772 29.692 100.956 30.204 101.324 30.596C101.692 30.988 102.148 31.184 102.692 31.184C103.236 31.184 103.692 30.988 104.06 30.596C104.428 30.204 104.612 29.692 104.612 29.06C104.612 28.436 104.428 27.928 104.06 27.536C103.684 27.136 103.228 26.936 102.692 26.936C102.156 26.936 101.7 27.136 101.324 27.536C100.956 27.928 100.772 28.436 100.772 29.06ZM115.141 26.12L113.245 32H112.117L110.653 27.488L109.201 32H108.085L106.189 26.12H107.341L108.649 30.56H108.661L110.113 26.12H111.253L112.705 30.56H112.717L114.013 26.12H115.141ZM116.072 26.12H117.128V26.936H117.176C117.344 26.648 117.6 26.408 117.944 26.216C118.296 26.024 118.66 25.928 119.036 25.928C119.756 25.928 120.308 26.136 120.692 26.552C121.084 26.96 121.28 27.544 121.28 28.304V32H120.176V28.376C120.152 27.416 119.668 26.936 118.724 26.936C118.284 26.936 117.916 27.116 117.62 27.476C117.324 27.828 117.176 28.252 117.176 28.748V32H116.072V26.12ZM123.891 23.408V32H122.787V23.408H123.891ZM125.053 29.06C125.053 28.156 125.337 27.408 125.905 26.816C126.481 26.224 127.205 25.928 128.077 25.928C128.949 25.928 129.669 26.224 130.237 26.816C130.813 27.408 131.101 28.156 131.101 29.06C131.101 29.972 130.813 30.72 130.237 31.304C129.669 31.896 128.949 32.192 128.077 32.192C127.205 32.192 126.481 31.896 125.905 31.304C125.337 30.712 125.053 29.964 125.053 29.06ZM126.157 29.06C126.157 29.692 126.341 30.204 126.709 30.596C127.077 30.988 127.533 31.184 128.077 31.184C128.621 31.184 129.077 30.988 129.445 30.596C129.813 30.204 129.997 29.692 129.997 29.06C129.997 28.436 129.813 27.928 129.445 27.536C129.069 27.136 128.613 26.936 128.077 26.936C127.541 26.936 127.085 27.136 126.709 27.536C126.341 27.928 126.157 28.436 126.157 29.06ZM133.119 30.2C133.119 30.488 133.239 30.728 133.479 30.92C133.727 31.112 134.015 31.208 134.343 31.208C134.807 31.208 135.219 31.036 135.579 30.692C135.947 30.348 136.131 29.944 136.131 29.48C135.787 29.208 135.307 29.072 134.691 29.072C134.243 29.072 133.867 29.18 133.563 29.396C133.267 29.612 133.119 29.88 133.119 30.2ZM134.547 25.928C135.363 25.928 136.007 26.148 136.479 26.588C136.951 27.02 137.187 27.616 137.187 28.376V32H136.131V31.184H136.083C135.627 31.856 135.019 32.192 134.259 32.192C133.611 32.192 133.067 32 132.627 31.616C132.195 31.232 131.979 30.752 131.979 30.176C131.979 29.568 132.207 29.084 132.663 28.724C133.127 28.364 133.743 28.184 134.511 28.184C135.167 28.184 135.707 28.304 136.131 28.544V28.292C136.131 27.908 135.979 27.584 135.675 27.32C135.371 27.048 135.015 26.912 134.607 26.912C133.991 26.912 133.503 27.172 133.143 27.692L132.171 27.08C132.707 26.312 133.499 25.928 134.547 25.928ZM141.225 31.184C141.769 31.184 142.213 30.988 142.557 30.596C142.917 30.204 143.097 29.692 143.097 29.06C143.097 28.444 142.917 27.936 142.557 27.536C142.205 27.136 141.761 26.936 141.225 26.936C140.697 26.936 140.253 27.136 139.893 27.536C139.533 27.936 139.353 28.444 139.353 29.06C139.353 29.684 139.533 30.192 139.893 30.584C140.253 30.984 140.697 31.184 141.225 31.184ZM141.045 32.192C140.277 32.192 139.617 31.888 139.065 31.28C138.521 30.664 138.249 29.924 138.249 29.06C138.249 28.196 138.521 27.456 139.065 26.84C139.617 26.232 140.277 25.928 141.045 25.928C141.477 25.928 141.869 26.02 142.221 26.204C142.581 26.388 142.857 26.632 143.049 26.936H143.097L143.049 26.12V23.408H144.153V32H143.097V31.184H143.049C142.857 31.488 142.581 31.732 142.221 31.916C141.869 32.1 141.477 32.192 141.045 32.192ZM148.222 29.06C148.222 28.156 148.506 27.408 149.074 26.816C149.65 26.224 150.374 25.928 151.246 25.928C152.118 25.928 152.838 26.224 153.406 26.816C153.982 27.408 154.27 28.156 154.27 29.06C154.27 29.972 153.982 30.72 153.406 31.304C152.838 31.896 152.118 32.192 151.246 32.192C150.374 32.192 149.65 31.896 149.074 31.304C148.506 30.712 148.222 29.964 148.222 29.06ZM149.326 29.06C149.326 29.692 149.51 30.204 149.878 30.596C150.246 30.988 150.702 31.184 151.246 31.184C151.79 31.184 152.246 30.988 152.614 30.596C152.982 30.204 153.166 29.692 153.166 29.06C153.166 28.436 152.982 27.928 152.614 27.536C152.238 27.136 151.782 26.936 151.246 26.936C150.71 26.936 150.254 27.136 149.878 27.536C149.51 27.928 149.326 28.436 149.326 29.06ZM155.367 26.12H156.423V26.936H156.471C156.639 26.648 156.895 26.408 157.239 26.216C157.591 26.024 157.955 25.928 158.331 25.928C159.051 25.928 159.603 26.136 159.987 26.552C160.379 26.96 160.575 27.544 160.575 28.304V32H159.471V28.376C159.447 27.416 158.963 26.936 158.019 26.936C157.579 26.936 157.211 27.116 156.915 27.476C156.619 27.828 156.471 28.252 156.471 28.748V32H155.367V26.12ZM167.258 32.096C166.778 32.096 166.378 31.948 166.058 31.652C165.746 31.356 165.586 30.944 165.578 30.416V27.128H164.546V26.12H165.578V24.32H166.682V26.12H168.122V27.128H166.682V30.056C166.682 30.448 166.758 30.716 166.91 30.86C167.062 30.996 167.234 31.064 167.426 31.064C167.514 31.064 167.598 31.056 167.678 31.04C167.766 31.016 167.846 30.988 167.918 30.956L168.266 31.94C167.978 32.044 167.642 32.096 167.258 32.096ZM169.443 23.408H170.547V26.12L170.499 26.936H170.547C170.715 26.648 170.971 26.408 171.315 26.216C171.667 26.024 172.031 25.928 172.407 25.928C173.127 25.928 173.679 26.136 174.063 26.552C174.455 26.96 174.651 27.544 174.651 28.304V32H173.547V28.52C173.547 27.464 173.079 26.936 172.143 26.936C171.695 26.936 171.315 27.124 171.003 27.5C170.699 27.868 170.547 28.3 170.547 28.796V32H169.443V23.408ZM178.798 32.192C177.934 32.192 177.222 31.896 176.662 31.304C176.102 30.712 175.822 29.964 175.822 29.06C175.822 28.164 176.094 27.42 176.638 26.828C177.182 26.228 177.878 25.928 178.726 25.928C179.598 25.928 180.29 26.212 180.802 26.78C181.322 27.34 181.582 28.128 181.582 29.144L181.57 29.264H176.95C176.966 29.84 177.158 30.304 177.526 30.656C177.894 31.008 178.334 31.184 178.846 31.184C179.55 31.184 180.102 30.832 180.502 30.128L181.486 30.608C181.222 31.104 180.854 31.492 180.382 31.772C179.918 32.052 179.39 32.192 178.798 32.192ZM177.034 28.352H180.406C180.374 27.944 180.206 27.608 179.902 27.344C179.606 27.072 179.206 26.936 178.702 26.936C178.286 26.936 177.926 27.064 177.622 27.32C177.326 27.576 177.13 27.92 177.034 28.352ZM97.64 43.94L95.3 50.4H100.06L97.72 43.94H97.64ZM93.28 56H91.24L96.64 41.68H98.72L104.12 56H102.08L100.7 52.12H94.68L93.28 56ZM110.588 54.64C111.468 54.64 112.208 54.3067 112.808 53.64C113.408 52.9867 113.708 52.14 113.708 51.1C113.708 50.0733 113.408 49.2267 112.808 48.56C112.208 47.8933 111.468 47.56 110.588 47.56C109.695 47.56 108.948 47.8933 108.348 48.56C107.762 49.2267 107.468 50.0733 107.468 51.1C107.468 52.14 107.762 52.9933 108.348 53.66C108.948 54.3133 109.695 54.64 110.588 54.64ZM110.888 56.32C110.168 56.32 109.508 56.1667 108.908 55.86C108.322 55.5533 107.868 55.1467 107.548 54.64H107.468L107.548 56V60.32H105.708V46.2H107.468V47.56H107.548C107.868 47.0533 108.322 46.6467 108.908 46.34C109.508 46.0333 110.168 45.88 110.888 45.88C112.182 45.88 113.275 46.3867 114.168 47.4C115.088 48.4267 115.548 49.66 115.548 51.1C115.548 52.5533 115.088 53.7867 114.168 54.8C113.275 55.8133 112.182 56.32 110.888 56.32ZM122.05 54.64C122.93 54.64 123.67 54.3067 124.27 53.64C124.87 52.9867 125.17 52.14 125.17 51.1C125.17 50.0733 124.87 49.2267 124.27 48.56C123.67 47.8933 122.93 47.56 122.05 47.56C121.156 47.56 120.41 47.8933 119.81 48.56C119.223 49.2267 118.93 50.0733 118.93 51.1C118.93 52.14 119.223 52.9933 119.81 53.66C120.41 54.3133 121.156 54.64 122.05 54.64ZM122.35 56.32C121.63 56.32 120.97 56.1667 120.37 55.86C119.783 55.5533 119.33 55.1467 119.01 54.64H118.93L119.01 56V60.32H117.17V46.2H118.93V47.56H119.01C119.33 47.0533 119.783 46.6467 120.37 46.34C120.97 46.0333 121.63 45.88 122.35 45.88C123.643 45.88 124.736 46.3867 125.63 47.4C126.55 48.4267 127.01 49.66 127.01 51.1C127.01 52.5533 126.55 53.7867 125.63 54.8C124.736 55.8133 123.643 56.32 122.35 56.32ZM142.067 52.18C142.067 53.4333 141.607 54.44 140.687 55.2C139.753 55.9467 138.62 56.32 137.287 56.32C136.1 56.32 135.053 55.9733 134.147 55.28C133.24 54.5867 132.613 53.64 132.267 52.44L134.027 51.72C134.147 52.1467 134.313 52.5333 134.527 52.88C134.74 53.2267 134.987 53.5267 135.267 53.78C135.56 54.02 135.88 54.2133 136.227 54.36C136.573 54.4933 136.94 54.56 137.327 54.56C138.167 54.56 138.853 54.3467 139.387 53.92C139.92 53.48 140.187 52.9 140.187 52.18C140.187 51.58 139.967 51.0667 139.527 50.64C139.113 50.2267 138.34 49.8267 137.207 49.44C136.06 49.0267 135.347 48.7467 135.067 48.6C133.547 47.8267 132.787 46.6867 132.787 45.18C132.787 44.1267 133.207 43.2267 134.047 42.48C134.9 41.7333 135.947 41.36 137.187 41.36C138.28 41.36 139.227 41.64 140.027 42.2C140.827 42.7467 141.36 43.4333 141.627 44.26L139.907 44.98C139.747 44.4467 139.427 44.0067 138.947 43.66C138.48 43.3 137.907 43.12 137.227 43.12C136.507 43.12 135.9 43.32 135.407 43.72C134.913 44.0933 134.667 44.58 134.667 45.18C134.667 45.6733 134.86 46.1 135.247 46.46C135.673 46.82 136.6 47.2467 138.027 47.74C139.48 48.2333 140.513 48.84 141.127 49.56C141.753 50.2667 142.067 51.14 142.067 52.18ZM147.545 56.16C146.745 56.16 146.078 55.9133 145.545 55.42C145.025 54.9267 144.758 54.24 144.745 53.36V47.88H143.025V46.2H144.745V43.2H146.585V46.2H148.985V47.88H146.585V52.76C146.585 53.4133 146.712 53.86 146.965 54.1C147.218 54.3267 147.505 54.44 147.825 54.44C147.972 54.44 148.112 54.4267 148.245 54.4C148.392 54.36 148.525 54.3133 148.645 54.26L149.225 55.9C148.745 56.0733 148.185 56.16 147.545 56.16ZM150.289 51.1C150.289 49.5933 150.762 48.3467 151.709 47.36C152.669 46.3733 153.876 45.88 155.329 45.88C156.782 45.88 157.982 46.3733 158.929 47.36C159.889 48.3467 160.369 49.5933 160.369 51.1C160.369 52.62 159.889 53.8667 158.929 54.84C157.982 55.8267 156.782 56.32 155.329 56.32C153.876 56.32 152.669 55.8267 151.709 54.84C150.762 53.8533 150.289 52.6067 150.289 51.1ZM152.129 51.1C152.129 52.1533 152.436 53.0067 153.049 53.66C153.662 54.3133 154.422 54.64 155.329 54.64C156.236 54.64 156.996 54.3133 157.609 53.66C158.222 53.0067 158.529 52.1533 158.529 51.1C158.529 50.06 158.222 49.2133 157.609 48.56C156.982 47.8933 156.222 47.56 155.329 47.56C154.436 47.56 153.676 47.8933 153.049 48.56C152.436 49.2133 152.129 50.06 152.129 51.1ZM163.896 56H162.056V46.2H163.816V47.8H163.896C164.083 47.28 164.463 46.84 165.036 46.48C165.623 46.1067 166.196 45.92 166.756 45.92C167.29 45.92 167.743 46 168.116 46.16L167.556 47.94C167.33 47.8467 166.97 47.8 166.476 47.8C165.783 47.8 165.176 48.08 164.656 48.64C164.15 49.2 163.896 49.8533 163.896 50.6V56ZM173.328 56.32C171.888 56.32 170.701 55.8267 169.768 54.84C168.834 53.8533 168.368 52.6067 168.368 51.1C168.368 49.6067 168.821 48.3667 169.728 47.38C170.634 46.38 171.794 45.88 173.208 45.88C174.661 45.88 175.814 46.3533 176.668 47.3C177.534 48.2333 177.968 49.5467 177.968 51.24L177.948 51.44H170.248C170.274 52.4 170.594 53.1733 171.208 53.76C171.821 54.3467 172.554 54.64 173.408 54.64C174.581 54.64 175.501 54.0533 176.168 52.88L177.808 53.68C177.368 54.5067 176.754 55.1533 175.968 55.62C175.194 56.0867 174.314 56.32 173.328 56.32ZM170.388 49.92H176.008C175.954 49.24 175.674 48.68 175.168 48.24C174.674 47.7867 174.008 47.56 173.168 47.56C172.474 47.56 171.874 47.7733 171.368 48.2C170.874 48.6267 170.548 49.2 170.388 49.92Z" fill="white"/>
<g clip-path="url(#clip0_730_11871)">
<path d="M74.1025 61.3909C71.5324 63.8776 68.7262 63.4849 66.0249 62.3071C63.1663 61.103 60.5437 61.0506 57.5277 62.3071C53.7511 63.9299 51.7579 63.4588 49.5025 61.3909C36.7042 48.2248 38.5924 28.1746 53.1217 27.4417C56.6622 27.6249 59.1275 29.3786 61.1993 29.5357C64.294 28.9075 67.2575 27.1014 70.562 27.337C74.5222 27.6511 77.5119 29.2216 79.4789 32.0485C71.2963 36.9433 73.2371 47.7013 80.7377 50.7114C79.2428 54.6377 77.3021 58.5378 74.0763 61.4171L74.1025 61.3909ZM60.937 27.2846C60.5437 21.4475 65.2906 16.6313 70.7456 16.1602C71.5062 22.9134 64.6087 27.939 60.937 27.2846Z" fill="white"/>
</g>
<defs>
<clipPath id="clip0_730_11871">
<rect width="40" height="50" fill="white" transform="translate(41 16)"/>
</clipPath>
</defs>
</svg>
