<svg width="224" height="82" viewBox="0 0 224 82" fill="none" xmlns="http://www.w3.org/2000/svg">
<rect width="224" height="82" rx="10" fill="white"/>
<path d="M94.3658 28.3035C94.3658 29.427 94.0324 30.3221 93.3658 30.9888C92.6168 31.7828 91.6318 32.1798 90.4108 32.1798C89.2423 32.1798 88.2536 31.7753 87.4446 30.9663C86.6356 30.1574 86.2311 29.1611 86.2311 27.9776C86.2311 26.7941 86.6356 25.7979 87.4446 24.9889C88.2536 24.18 89.2423 23.7755 90.4108 23.7755C91.0026 23.7755 91.5606 23.8804 92.0849 24.0901C92.6093 24.2998 93.04 24.5957 93.377 24.9777L92.6355 25.7193C92.3883 25.4196 92.0662 25.1874 91.6692 25.0226C91.2797 24.8504 90.8602 24.7642 90.4108 24.7642C89.5344 24.7642 88.7929 25.0676 88.1862 25.6743C87.5869 26.2885 87.2873 27.0563 87.2873 27.9776C87.2873 28.899 87.5869 29.6667 88.1862 30.2809C88.7929 30.8877 89.5344 31.191 90.4108 31.191C91.2123 31.191 91.8789 30.9663 92.4108 30.5169C92.9426 30.0675 93.2497 29.4495 93.3321 28.663H90.4108V27.6967H94.3096C94.347 27.9065 94.3658 28.1087 94.3658 28.3035ZM100.516 23.9553V24.944H96.8533V27.4945H100.157V28.4608H96.8533V31.0113H100.516V32H95.8196V23.9553H100.516ZM104.849 24.944V32H103.815V24.944H101.568V23.9553H107.096V24.944H104.849ZM112.073 32H111.039V23.9553H112.073V32ZM116.634 24.944V32H115.6V24.944H113.353V23.9553H118.881V24.944H116.634ZM130.481 27.9776C130.481 29.1686 130.084 30.1648 129.29 30.9663C128.489 31.7753 127.508 32.1798 126.347 32.1798C125.178 32.1798 124.197 31.7753 123.403 30.9663C122.609 30.1648 122.212 29.1686 122.212 27.9776C122.212 26.7866 122.609 25.7904 123.403 24.9889C124.197 24.18 125.178 23.7755 126.347 23.7755C127.515 23.7755 128.496 24.1837 129.29 25.0002C130.084 25.8017 130.481 26.7941 130.481 27.9776ZM123.268 27.9776C123.268 28.9064 123.56 29.6742 124.144 30.2809C124.736 30.8877 125.47 31.191 126.347 31.191C127.223 31.191 127.953 30.8877 128.538 30.2809C129.129 29.6817 129.425 28.9139 129.425 27.9776C129.425 27.0413 129.129 26.2736 128.538 25.6743C127.953 25.0676 127.223 24.7642 126.347 24.7642C125.47 24.7642 124.736 25.0676 124.144 25.6743C123.56 26.281 123.268 27.0488 123.268 27.9776ZM132.933 32H131.899V23.9553H133.157L137.067 30.2135H137.112L137.067 28.663V23.9553H138.101V32H137.023L132.933 25.4384H132.888L132.933 26.9889V32ZM100.066 48.8391C100.066 50.7117 99.5105 52.2036 98.3994 53.3146C97.151 54.638 95.5093 55.2996 93.4744 55.2996C91.5269 55.2996 89.879 54.6255 88.5307 53.2772C87.1824 51.9289 86.5083 50.2685 86.5083 48.2961C86.5083 46.3236 87.1824 44.6632 88.5307 43.3149C89.879 41.9666 91.5269 41.2925 93.4744 41.2925C94.4607 41.2925 95.3907 41.4673 96.2646 41.8168C97.1385 42.1664 97.8563 42.6595 98.4181 43.2962L97.1822 44.5321C96.7702 44.0327 96.2334 43.6457 95.5717 43.3711C94.9226 43.0839 94.2235 42.9404 93.4744 42.9404C92.0138 42.9404 90.7779 43.446 89.7666 44.4572C88.7679 45.4809 88.2686 46.7605 88.2686 48.2961C88.2686 49.8316 88.7679 51.1112 89.7666 52.1349C90.7779 53.1461 92.0138 53.6517 93.4744 53.6517C94.8102 53.6517 95.9213 53.2772 96.8077 52.5282C97.694 51.7791 98.2059 50.7492 98.3432 49.4383H93.4744V47.8279H99.9724C100.035 48.1775 100.066 48.5145 100.066 48.8391ZM101.442 50.4121C101.442 49.0014 101.885 47.8341 102.771 46.9103C103.67 45.9865 104.8 45.5246 106.161 45.5246C107.521 45.5246 108.645 45.9865 109.531 46.9103C110.43 47.8341 110.88 49.0014 110.88 50.4121C110.88 51.8353 110.43 53.0025 109.531 53.9139C108.645 54.8377 107.521 55.2996 106.161 55.2996C104.8 55.2996 103.67 54.8377 102.771 53.9139C101.885 52.9901 101.442 51.8228 101.442 50.4121ZM103.165 50.4121C103.165 51.3983 103.452 52.1973 104.026 52.809C104.6 53.4208 105.312 53.7266 106.161 53.7266C107.01 53.7266 107.721 53.4208 108.295 52.809C108.87 52.1973 109.157 51.3983 109.157 50.4121C109.157 49.4383 108.87 48.6456 108.295 48.0339C107.709 47.4097 106.997 47.0976 106.161 47.0976C105.324 47.0976 104.613 47.4097 104.026 48.0339C103.452 48.6456 103.165 49.4383 103.165 50.4121ZM112.118 50.4121C112.118 49.0014 112.561 47.8341 113.448 46.9103C114.347 45.9865 115.476 45.5246 116.837 45.5246C118.198 45.5246 119.321 45.9865 120.208 46.9103C121.107 47.8341 121.556 49.0014 121.556 50.4121C121.556 51.8353 121.107 53.0025 120.208 53.9139C119.321 54.8377 118.198 55.2996 116.837 55.2996C115.476 55.2996 114.347 54.8377 113.448 53.9139C112.561 52.9901 112.118 51.8228 112.118 50.4121ZM113.841 50.4121C113.841 51.3983 114.128 52.1973 114.702 52.809C115.277 53.4208 115.988 53.7266 116.837 53.7266C117.686 53.7266 118.398 53.4208 118.972 52.809C119.546 52.1973 119.833 51.3983 119.833 50.4121C119.833 49.4383 119.546 48.6456 118.972 48.0339C118.385 47.4097 117.674 47.0976 116.837 47.0976C116.001 47.0976 115.289 47.4097 114.702 48.0339C114.128 48.6456 113.841 49.4383 113.841 50.4121ZM127.439 53.7266C128.288 53.7266 128.98 53.4208 129.517 52.809C130.079 52.1973 130.36 51.3983 130.36 50.4121C130.36 49.4508 130.079 48.6581 129.517 48.0339C128.968 47.4097 128.275 47.0976 127.439 47.0976C126.615 47.0976 125.922 47.4097 125.36 48.0339C124.798 48.6581 124.517 49.4508 124.517 50.4121C124.517 51.3859 124.798 52.1786 125.36 52.7903C125.922 53.4145 126.615 53.7266 127.439 53.7266ZM127.382 59.3445C126.871 59.3445 126.39 59.2758 125.941 59.1385C125.491 59.0136 125.079 58.8326 124.705 58.5954C124.343 58.3582 124.03 58.0773 123.768 57.7527C123.506 57.4282 123.306 57.0661 123.169 56.6666L124.798 55.9925C124.986 56.5293 125.31 56.96 125.772 57.2846C126.234 57.6092 126.771 57.7715 127.382 57.7715C128.319 57.7715 129.049 57.4906 129.573 56.9288C130.098 56.367 130.36 55.593 130.36 54.6068V53.7266H130.285C129.96 54.2135 129.517 54.6005 128.955 54.8876C128.406 55.1623 127.807 55.2996 127.158 55.2996C125.959 55.2996 124.929 54.8315 124.068 53.8952C123.219 52.9339 122.795 51.7729 122.795 50.4121C122.795 49.0513 123.219 47.8966 124.068 46.9478C124.929 45.999 125.959 45.5246 127.158 45.5246C127.807 45.5246 128.406 45.6682 128.955 45.9553C129.517 46.2299 129.96 46.6107 130.285 47.0976H130.36V45.8242H132.008V54.6068C132.008 56.0799 131.59 57.2346 130.753 58.0711C129.904 58.92 128.781 59.3445 127.382 59.3445ZM136.029 41.5921V55H134.306V41.5921H136.029ZM142.354 55.2996C141.006 55.2996 139.895 54.8377 139.021 53.9139C138.147 52.9901 137.71 51.8228 137.71 50.4121C137.71 49.0139 138.135 47.8529 138.984 46.929C139.833 45.9927 140.919 45.5246 142.242 45.5246C143.603 45.5246 144.683 45.9678 145.482 46.8541C146.293 47.728 146.699 48.9577 146.699 50.5432L146.68 50.7304H139.471C139.496 51.6293 139.795 52.3534 140.369 52.9027C140.944 53.452 141.63 53.7266 142.429 53.7266C143.528 53.7266 144.389 53.1773 145.014 52.0787L146.549 52.8278C146.137 53.6018 145.563 54.2073 144.826 54.6442C144.102 55.0811 143.278 55.2996 142.354 55.2996ZM139.602 49.3073H144.864C144.814 48.6706 144.552 48.1462 144.077 47.7343C143.615 47.3098 142.991 47.0976 142.205 47.0976C141.555 47.0976 140.994 47.2973 140.519 47.6968C140.057 48.0963 139.751 48.6331 139.602 49.3073ZM154.807 49.5694V55H153.084V41.5921H157.653C158.815 41.5921 159.801 41.9791 160.612 42.7531C161.436 43.5271 161.848 44.4697 161.848 45.5808C161.848 46.7168 161.436 47.6656 160.612 48.4271C159.813 49.1887 158.827 49.5694 157.653 49.5694H154.807ZM154.807 43.24V47.9215H157.691C158.378 47.9215 158.946 47.6906 159.395 47.2287C159.857 46.7668 160.088 46.2175 160.088 45.5808C160.088 44.9566 159.857 44.4135 159.395 43.9516C158.946 43.4772 158.378 43.24 157.691 43.24H154.807ZM165.367 41.5921V55H163.644V41.5921H165.367ZM168.827 52.1911C168.827 52.6405 169.014 53.015 169.389 53.3146C169.776 53.6143 170.225 53.7641 170.737 53.7641C171.461 53.7641 172.104 53.4957 172.666 52.9589C173.24 52.422 173.527 51.7916 173.527 51.0675C172.991 50.6431 172.242 50.4308 171.28 50.4308C170.581 50.4308 169.994 50.5994 169.52 50.9364C169.058 51.2735 168.827 51.6917 168.827 52.1911ZM171.056 45.5246C172.329 45.5246 173.334 45.8679 174.07 46.5545C174.807 47.2287 175.175 48.1587 175.175 49.3447V55H173.527V53.7266H173.452C172.741 54.7753 171.792 55.2996 170.606 55.2996C169.595 55.2996 168.746 55 168.059 54.4008C167.385 53.8015 167.048 53.0525 167.048 52.1536C167.048 51.2048 167.404 50.4496 168.116 49.8878C168.84 49.326 169.801 49.0451 170.999 49.0451C172.023 49.0451 172.866 49.2324 173.527 49.6069V49.2136C173.527 48.6144 173.29 48.1088 172.816 47.6968C172.341 47.2724 171.786 47.0601 171.149 47.0601C170.188 47.0601 169.426 47.4659 168.865 48.2773L167.348 47.3223C168.184 46.1238 169.42 45.5246 171.056 45.5246ZM185.335 45.8242L179.587 59.0448H177.808L179.942 54.4195L176.16 45.8242H178.032L180.766 52.4158H180.804L183.463 45.8242H185.335Z" fill="black"/>
<g clip-path="url(#clip0_730_11876)">
<path d="M41.1988 22.2671C40.8223 22.5501 40.5604 22.9858 40.5601 23.4885V57.8275C40.5601 58.3375 40.8221 58.7699 41.2016 59.0549L60.4551 40.6623L41.1988 22.2671Z" fill="#29B6F6"/>
<path d="M41.1988 22.2671C40.8223 22.5501 40.5604 22.9858 40.5601 23.4885V57.8275C40.5601 58.3375 40.8221 58.7699 41.2016 59.0549L60.4551 40.6623L41.1988 22.2671Z" fill="url(#paint0_linear_730_11876)"/>
<path d="M66.3857 34.9972C58.4943 30.6139 48.6915 25.244 42.8436 22.1154C42.2732 21.8112 41.6515 21.9269 41.1987 22.2674L60.4551 40.6626L66.3857 34.9972Z" fill="#00E676"/>
<path d="M66.3857 34.9972C58.4943 30.6139 48.6915 25.244 42.8436 22.1154C42.2732 21.8112 41.6515 21.9269 41.1987 22.2674L60.4551 40.6626L66.3857 34.9972Z" fill="url(#paint1_linear_730_11876)"/>
<path d="M41.2017 59.0552C41.4624 59.2511 41.7702 59.3887 42.1206 59.3887C42.3675 59.3887 42.6105 59.3255 42.8429 59.2012C48.6901 56.0734 58.49 50.7052 66.3803 46.3228L60.4552 40.6626L41.2017 59.0552Z" fill="#F44336"/>
<path d="M41.2017 59.0552C41.4624 59.2511 41.7702 59.3887 42.1206 59.3887C42.3675 59.3887 42.6105 59.3255 42.8429 59.2012C48.6901 56.0734 58.49 50.7052 66.3803 46.3228L60.4552 40.6626L41.2017 59.0552Z" fill="url(#paint2_linear_730_11876)"/>
<path d="M74.0972 39.313C71.9969 38.1239 69.3194 36.6266 66.3857 34.9971L60.4551 40.6625L66.3802 46.3227C69.3162 44.6921 71.9956 43.1938 74.0972 42.0041C74.5872 41.7268 74.8912 41.2115 74.8912 40.6582C74.8912 40.1049 74.5872 39.5896 74.0972 39.313Z" fill="#FFEA00"/>
<path d="M74.0972 39.313C71.9969 38.1239 69.3194 36.6266 66.3857 34.9971L60.4551 40.6625L66.3802 46.3227C69.3162 44.6921 71.9956 43.1938 74.0972 42.0041C74.5872 41.7268 74.8912 41.2115 74.8912 40.6582C74.8912 40.1049 74.5872 39.5896 74.0972 39.313Z" fill="url(#paint3_linear_730_11876)"/>
<path opacity="0.2" d="M42.7321 22.5051C50.8142 26.7967 66.4117 35.3151 74.2197 39.7028C74.5048 39.8625 74.7171 40.1066 74.8543 40.387C74.7722 39.9416 74.5051 39.543 74.0971 39.3126C66.3472 34.925 50.8655 26.4065 42.8435 22.1149C41.8842 21.6033 40.7737 22.2595 40.5962 23.227C40.9625 22.4887 41.9031 22.0662 42.7321 22.5051Z" fill="white"/>
<path opacity="0.1" d="M42.7321 58.8194C50.8142 54.5279 66.4117 46.0094 74.2197 41.6217C74.5048 41.462 74.7171 41.2179 74.8543 40.9375C74.7722 41.383 74.5051 41.7816 74.0971 42.0119C66.3472 46.3996 50.8655 54.918 42.8435 59.2096C41.8842 59.7212 40.7737 59.065 40.5962 58.0975C40.9625 58.8358 41.9031 59.2583 42.7321 58.8194Z" fill="black"/>
<path d="M74.0978 39.3116C71.9974 38.1224 48.6921 25.2413 42.8442 22.1125C42.2737 21.8083 41.6521 21.924 41.1993 22.2645C40.8228 22.5475 40.5609 22.9832 40.5605 23.486V57.8277C40.5605 58.3377 40.8226 58.7702 41.2021 59.0552C41.4629 59.2511 41.7706 59.3888 42.1211 59.3888C42.3679 59.3888 42.611 59.3255 42.8434 59.2012C48.6905 56.0732 71.9961 43.1927 74.0978 42.0029C74.5877 41.7255 74.8918 41.2102 74.8918 40.6569C74.8918 40.1035 74.5877 39.5882 74.0978 39.3116Z" fill="url(#paint4_linear_730_11876)"/>
</g>
<defs>
<linearGradient id="paint0_linear_730_11876" x1="50.5076" y1="25.2021" x2="50.5076" y2="50.0304" gradientUnits="userSpaceOnUse">
<stop stop-color="#00B8D4" stop-opacity="0"/>
<stop offset="1" stop-color="white" stop-opacity="0.3"/>
</linearGradient>
<linearGradient id="paint1_linear_730_11876" x1="39.572" y1="25.756" x2="65.1361" y2="37.6768" gradientUnits="userSpaceOnUse">
<stop stop-color="white" stop-opacity="0.2"/>
<stop offset="1" stop-color="white" stop-opacity="0"/>
</linearGradient>
<linearGradient id="paint2_linear_730_11876" x1="50.6794" y1="49.5774" x2="56.9025" y2="55.8005" gradientUnits="userSpaceOnUse">
<stop stop-opacity="0.1"/>
<stop offset="1" stop-opacity="0"/>
</linearGradient>
<linearGradient id="paint3_linear_730_11876" x1="64.2234" y1="36.8941" x2="71.756" y2="44.4267" gradientUnits="userSpaceOnUse">
<stop stop-opacity="0.05"/>
<stop offset="1" stop-opacity="0"/>
</linearGradient>
<linearGradient id="paint4_linear_730_11876" x1="34.143" y1="36.9309" x2="69.1697" y2="53.2641" gradientUnits="userSpaceOnUse">
<stop stop-color="white" stop-opacity="0.2"/>
<stop offset="1" stop-color="white" stop-opacity="0"/>
</linearGradient>
<clipPath id="clip0_730_11876">
<rect width="37.4522" height="37.4522" fill="white" transform="translate(39 21.9365)"/>
</clipPath>
</defs>
</svg>
