<svg width="138" height="65" viewBox="0 0 138 65" fill="none" xmlns="http://www.w3.org/2000/svg">
<path d="M20.176 47L1.28392 4.20253H6.29734L22.7438 41.6809L35.2162 13.8014C36.011 12.0284 36.5001 10.4387 36.5001 9.09367C36.5001 6.3424 34.4825 4.63051 28.8577 4.63051V4.20253H43.5923V4.63051C41.4524 4.63051 39.8628 4.69164 35.7665 13.8014L20.8485 47H20.176ZM45.0303 20.1599L49.4935 16.0635C58.5421 15.1465 63.9223 20.1599 67.285 28.4137L74.744 47H70.2197L65.0228 33.8551C61.7213 25.7847 59.0312 23.9505 54.5069 23.9505C47.2924 23.9505 43.5629 28.7805 43.5629 33.6716C43.5629 38.5628 47.2924 43.4539 54.8737 43.4539C61.5379 43.4539 63.8 40.6415 63.8612 36.1172L64.2892 36.4229C64.4726 41.4975 61.4767 47.428 54.7514 47.428C45.6417 47.428 41.4842 41.8032 41.4842 35.9949C41.4842 29.7587 46.2531 23.3391 54.7514 23.3391C58.0529 23.3391 60.4985 24.5008 62.6384 27.68C60.3151 21.9329 56.7079 19.6708 50.6551 19.6708C48.9432 19.6708 47.109 19.8542 45.0303 20.1599ZM88.9204 28.5971C82.8676 28.5971 80.3609 26.0292 80.3609 23.0946C80.3609 19.3651 84.5184 15.1465 90.7546 15.1465L93.3836 18.448C86.9028 18.448 82.8676 21.9329 82.8676 24.7453C82.8676 26.6406 84.6407 28.1691 88.6147 28.1691C95.5846 28.1691 105.183 26.824 105.183 35.139C105.183 42.4757 96.5628 47.5503 88.7981 47.5503C82.0728 47.5503 75.9589 43.6373 77.0594 33.9773L77.304 34.0385C77.304 40.6415 82.7454 43.3316 88.5536 43.3316C95.2789 43.3316 102.493 39.7244 102.493 34.2219C102.493 27.252 95.34 28.5971 88.9204 28.5971ZM114.154 15.5744V15.0853C118.312 14.3516 120.391 12.762 120.391 10.3165C120.391 8.60456 119.351 6.52582 117.273 3.95797L121.858 3.16316C123.203 4.9362 123.814 6.52582 123.814 7.93202C123.814 12.0895 118.801 14.5351 114.154 15.5744ZM110.853 20.4656V16.4304H131.09L131.029 20.4656H126.321C118.251 20.4656 113.421 27.3743 113.421 33.5494C113.421 38.5628 116.6 43.1482 123.814 43.1482C128.033 43.1482 131.946 40.7027 132.007 36.1172L132.435 36.4229C132.619 41.4975 129.623 47.428 122.897 47.428C114.644 47.428 111.098 42.17 111.098 36.3006C111.098 29.6976 115.561 22.2997 122.775 20.4656H110.853Z" fill="#0060FE"/>
<path d="M22.7963 47L3.90429 4.20253H8.9177L25.3642 41.6809L37.8366 13.8014C38.6314 12.0284 39.1205 10.4387 39.1205 9.09367C39.1205 6.3424 37.1029 4.63051 31.4781 4.63051V4.20253H46.2126V4.63051C44.0728 4.63051 42.4831 4.69164 38.3868 13.8014L23.4688 47H22.7963ZM47.6506 20.1599L52.1138 16.0635C61.1624 15.1465 66.5427 20.1599 69.9053 28.4137L77.3643 47H72.84L67.6432 33.8551C64.3417 25.7847 61.6515 23.9505 57.1272 23.9505C49.9128 23.9505 46.1833 28.7805 46.1833 33.6716C46.1833 38.5628 49.9128 43.4539 57.4941 43.4539C64.1582 43.4539 66.4204 40.6415 66.4815 36.1172L66.9095 36.4229C67.0929 41.4975 64.0971 47.428 57.3718 47.428C48.262 47.428 44.1046 41.8032 44.1046 35.9949C44.1046 29.7587 48.8734 23.3391 57.3718 23.3391C60.6733 23.3391 63.1189 24.5008 65.2588 27.68C62.9355 21.9329 59.3282 19.6708 53.2755 19.6708C51.5636 19.6708 49.7294 19.8542 47.6506 20.1599ZM91.5408 28.5971C85.488 28.5971 82.9813 26.0292 82.9813 23.0946C82.9813 19.3651 87.1388 15.1465 93.375 15.1465L96.0039 18.448C89.5232 18.448 85.488 21.9329 85.488 24.7453C85.488 26.6406 87.261 28.1691 91.2351 28.1691C98.205 28.1691 107.804 26.824 107.804 35.139C107.804 42.4757 99.1832 47.5503 91.4185 47.5503C84.6932 47.5503 78.5793 43.6373 79.6798 33.9773L79.9243 34.0385C79.9243 40.6415 85.3657 43.3316 91.1739 43.3316C97.8993 43.3316 105.114 39.7244 105.114 34.2219C105.114 27.252 97.9604 28.5971 91.5408 28.5971ZM116.775 15.5744V15.0853C120.932 14.3516 123.011 12.762 123.011 10.3165C123.011 8.60456 121.972 6.52582 119.893 3.95797L124.478 3.16316C125.823 4.9362 126.435 6.52582 126.435 7.93202C126.435 12.0895 121.421 14.5351 116.775 15.5744ZM113.473 20.4656V16.4304H133.71L133.649 20.4656H128.942C120.871 20.4656 116.041 27.3743 116.041 33.5494C116.041 38.5628 119.22 43.1482 126.435 43.1482C130.653 43.1482 134.566 40.7027 134.628 36.1172L135.055 36.4229C135.239 41.4975 132.243 47.428 125.518 47.428C117.264 47.428 113.718 42.17 113.718 36.3006C113.718 29.6976 118.181 22.2997 125.395 20.4656H113.473Z" fill="#0060FE"/>
</svg>
