<svg width="230" height="59" viewBox="0 0 230 59" fill="none" xmlns="http://www.w3.org/2000/svg">
<path d="M228.499 1.94295C228.467 1.11512 227.771 0.469576 226.943 0.501085L213.453 1.01455C212.625 1.04606 211.979 1.74269 212.011 2.57052C212.042 3.39835 212.739 4.04389 213.567 4.01238L225.558 3.55597L226.015 15.5473C226.046 16.3751 226.743 17.0207 227.571 16.9891C228.398 16.9576 229.044 16.261 229.012 15.4332L228.499 1.94295ZM2 2L0.986094 3.10544C1.60494 3.67304 2.22372 4.2364 2.84243 4.79551L3.84813 3.6826L4.85383 2.56969C4.24065 2.01558 3.62734 1.4572 3.01391 0.894561L2 2ZM7.54266 6.97118L6.5539 8.09917C7.80872 9.19911 9.06326 10.2815 10.3175 11.3464L11.2883 10.2029L12.2591 9.05944C11.0171 8.00496 9.77453 6.93287 8.53141 5.8432L7.54266 6.97118ZM15.0828 13.3714L14.131 14.5307C15.4226 15.5912 16.7139 16.6329 18.0047 17.6559L18.9364 16.4803L19.868 15.3047C18.5909 14.2926 17.3131 13.2617 16.0347 12.2121L15.0828 13.3714ZM22.8327 19.5117L21.9225 20.7039C23.2535 21.7202 24.5842 22.7165 25.9144 23.6928L26.8019 22.4836L27.6894 21.2743C26.3747 20.3094 25.0593 19.3245 23.743 18.3195L22.8327 19.5117ZM30.8013 25.359L29.9378 26.5856C31.3107 27.5521 32.6832 28.4973 34.0552 29.421L34.8929 28.1767L35.7306 26.9324C34.3762 26.0206 33.0209 25.0872 31.6647 24.1325L30.8013 25.359ZM39.0049 30.8812L38.1944 32.1434C39.6083 33.0514 41.0216 33.9365 42.4344 34.7986L43.2158 33.5182L43.9971 32.2378C42.6043 31.3878 41.2104 30.5149 39.8154 29.6191L39.0049 30.8812ZM47.4608 36.0401L46.7103 37.3388C48.1596 38.1764 49.6082 38.9896 51.0562 39.7785L51.7738 38.4613L52.4915 37.1441C51.0659 36.3675 49.6392 35.5665 48.2113 34.7414L47.4608 36.0401ZM56.1546 40.7742L55.4719 42.1099C56.9564 42.8685 58.44 43.6014 59.9229 44.3085L60.5685 42.9546L61.2141 41.6006C59.7565 40.9055 58.2975 40.1848 56.8372 39.4385L56.1546 40.7742ZM65.0828 45.0278L64.4768 46.3999C66.0083 47.0763 67.5388 47.725 69.0685 48.3459L69.6327 46.956L70.1968 45.5662C68.6957 44.9568 67.193 44.32 65.6888 43.6557L65.0828 45.0278ZM74.2365 48.7411L73.7166 50.1482C75.2927 50.7306 76.8678 51.2834 78.4418 51.8064L78.9148 50.3829L79.3878 48.9594C77.8457 48.447 76.3019 47.9052 74.7564 47.3341L74.2365 48.7411ZM83.6275 51.8599L83.2037 53.2988C84.811 53.7721 86.4171 54.2141 88.0218 54.6249L88.3938 53.1717L88.7657 51.7185C87.1961 51.3168 85.6246 50.8843 84.0512 50.4209L83.6275 51.8599ZM93.2141 54.3108L92.8965 55.7768C94.5327 56.1313 96.1674 56.4529 97.8007 56.7416L98.0618 55.2645L98.3229 53.7874C96.7279 53.5055 95.1308 53.1913 93.5317 52.8448L93.2141 54.3108ZM102.945 56.029L102.743 57.5153C104.404 57.7416 106.064 57.9337 107.721 58.0912L107.863 56.598L108.005 55.1047C106.388 54.951 104.769 54.7637 103.148 54.5428L102.945 56.029ZM112.793 56.964L112.713 58.4618C114.383 58.5509 116.051 58.6048 117.716 58.6234L117.733 57.1235L117.75 55.6236C116.127 55.6055 114.501 55.553 112.873 55.4661L112.793 56.964ZM122.681 57.0732L122.728 58.5724C124.398 58.5197 126.065 58.4313 127.73 58.307L127.618 56.8111L127.507 55.3153C125.885 55.4364 124.26 55.5226 122.634 55.5739L122.681 57.0732ZM132.542 56.3368L132.718 57.8264C134.374 57.6308 136.028 57.3995 137.679 57.1323L137.439 55.6515L137.2 54.1708C135.591 54.4311 133.98 54.6566 132.366 54.8471L132.542 56.3368ZM142.301 54.7584L142.603 56.2276C144.234 55.892 145.863 55.5211 147.489 55.1149L147.126 53.6596L146.762 52.2043C145.176 52.6004 143.588 52.962 141.998 53.2891L142.301 54.7584ZM151.899 52.3618L152.322 53.8009C153.914 53.333 155.503 52.8309 157.089 52.2947L156.608 50.8737L156.128 49.4527C154.58 49.9762 153.029 50.4662 151.476 50.9227L151.899 52.3618ZM161.265 49.1966L161.801 50.5977C163.351 50.0051 164.898 49.3796 166.443 48.7211L165.855 47.3413L165.266 45.9615C163.756 46.6053 162.244 47.2166 160.73 47.7955L161.265 49.1966ZM170.358 45.3229L170.996 46.6804C172.496 45.9751 173.993 45.2384 175.488 44.4702L174.802 43.1361L174.116 41.802C172.653 42.5543 171.187 43.2754 169.719 43.9655L170.358 45.3229ZM179.162 40.8002L179.893 42.1103C181.333 41.3073 182.771 40.4747 184.206 39.6127L183.433 38.3269L182.661 37.0411C181.253 37.8867 179.844 38.703 178.432 39.4901L179.162 40.8002ZM187.648 35.704L188.46 36.9651C189.843 36.0743 191.224 35.1559 192.602 34.2097L191.753 32.9731L190.904 31.7366C189.55 32.6663 188.194 33.5683 186.836 34.4429L187.648 35.704ZM195.79 30.1151L196.674 31.3271C198.009 30.3535 199.342 29.3536 200.672 28.3275L199.756 27.1399L198.839 25.9522C197.53 26.9621 196.219 27.9457 194.906 28.9031L195.79 30.1151ZM203.618 24.0791L204.565 25.2428C205.85 24.1975 207.133 23.1274 208.413 22.0324L207.438 20.8924L206.463 19.7525C205.202 20.8316 203.938 21.8859 202.672 22.9154L203.618 24.0791ZM211.138 17.6529L212.139 18.7699C213.369 17.6676 214.596 16.5421 215.822 15.3935L214.796 14.2991L213.77 13.2048C212.561 14.3384 211.35 15.4487 210.137 16.5359L211.138 17.6529ZM218.358 10.8874L219.407 11.9597C220.584 10.8077 221.76 9.6341 222.933 8.43886L221.863 7.38807L220.792 6.33729C219.633 7.51826 218.472 8.67751 217.309 9.8151L218.358 10.8874ZM225.291 3.8273L226.381 4.8572C226.955 4.24987 227.528 3.63732 228.1 3.01955L227 2L225.9 0.980449C225.334 1.59134 224.767 2.19699 224.2 2.79741L225.291 3.8273Z" fill="#020202"/>
</svg>
